<svg xmlns="http://www.w3.org/2000/svg" width="447" height="356" fill="none" viewBox="0 0 447 356">
  <path fill="#2563EB" d="M148.44 1.614c-21.963 5.108-41.654 22.194-51.5 44.741-22.341 50.907 4.923 112.03 53.962 121.542 20.259 3.875 39.76-1.762 56.611-16.382 18.745-16.205 28.779-39.809 28.779-66.936 0-16.91-3.408-30.65-10.981-44.741-15.904-29.593-46.956-45.094-76.871-38.224Zm175.704 165.05c-21.584 4.228-39.571 13.387-54.718 28.184-8.331 8.102-12.875 14.444-18.366 25.013-26.128 51.082 2.273 113.263 60.399 131.23 48.091 14.972 101.484-5.285 124.394-47.384 28.401-52.316.379-115.553-59.641-134.225-15.336-4.579-36.353-5.636-52.068-2.818Zm2.462 22.371c1.515.528 3.787 2.114 4.923 3.347l2.272 2.113.189 23.428c.189 12.859 0 23.428-.568 23.428-.379 0-2.272 1.233-4.355 2.818-4.355 3.347-7.195 8.631-7.952 14.444l-.568 4.052-20.07 10.921c-17.608 9.512-20.637 10.745-24.045 10.921-4.544 0-9.089-2.114-10.793-5.461-3.218-5.989-4.165-20.609-1.704-31.882 4.923-24.309 20.449-43.333 44.116-54.43 10.792-4.932 13.821-5.637 18.555-3.699Zm47.902 1.409c24.235 8.631 43.926 30.474 49.228 54.958 2.272 10.569 1.893 27.831-.947 32.94-2.272 4.051-6.248 6.341-10.603 6.341-3.597 0-6.248-1.057-24.614-10.921l-20.448-10.921-.379-3.523c-.568-5.813-2.651-10.041-7.195-13.916-2.272-2.114-4.733-3.699-5.301-3.699-.568 0-.947-7.398-.947-22.195 0-25.365.19-26.422 7.006-29.592 5.112-2.467 5.869-2.467 14.2.528Zm-26.318 62.004c3.598 1.761 5.302 4.228 5.302 8.103 0 4.051-1.894 6.693-5.68 8.279-4.545 1.761-8.899.528-11.929-3.699-3.029-4.052-.946-10.569 3.976-12.683 3.598-1.409 5.302-1.409 8.331 0Zm-13.632 27.479c5.112 2.466 13.632 2.466 19.123 0l3.976-1.761 20.827 11.097c19.123 10.393 20.827 11.449 22.342 14.444 3.219 6.517 1.325 10.921-7.574 17.262-27.832 19.729-67.404 20.257-96.183 1.233-8.331-5.46-10.792-8.455-10.792-13.211 0-6.693 1.704-8.102 24.046-20.08 11.171-5.989 20.259-10.922 20.448-10.922-.189.177 1.704 1.057 3.787 1.938Z"/>
  <path fill="#2563EB" d="M80.09 181.812c-6.817 1.409-14.769 5.284-21.585 10.216-6.627 4.756-21.395 19.024-26.696 25.542-11.36 13.915-22.153 32.763-28.4 49.673C.567 274.994.188 277.284 0 283.977c0 7.046 0 8.103 2.272 11.626 4.355 6.694 13.632 11.097 28.4 13.211 15.526 2.29 24.804 4.58 46.767 11.45 36.352 11.449 49.227 13.387 85.201 13.387 26.129 0 37.489-1.057 54.719-4.932 12.496-2.819 30.293-8.103 29.915-8.808-.19-.352-1.704-3.17-3.598-6.165-24.235-39.633-19.501-87.897 11.929-121.894l4.354-4.58-5.68-2.466c-11.549-4.932-22.152-4.932-35.027.352-3.976 1.586-10.792 4.228-15.147 5.813-30.483 10.393-57.937 9.865-88.042-1.937-5.301-2.114-11.928-4.58-14.579-5.637-6.058-2.466-14.39-2.995-21.395-1.585Z"/>
</svg>
